<?xml version="1.0" encoding="UTF-8"?>
<!-- Generator: Adobe Illustrator 21.0.0, SVG Export Plug-In . SVG Version: 6.00 Build 0)  -->
<svg version="1.1" id="NAO-logo" xmlns="http://www.w3.org/2000/svg" xmlns:xlink="http://www.w3.org/1999/xlink" x="0px" y="0px" viewBox="0 0 793 390" style="enable-background:new 0 0 793 390;" xml:space="preserve">
<style type="text/css">
	.st0{fill:#009688;}
	.st1{fill:#E8441E;}
</style>
<g id="logo-big">
	
		<image style="overflow:visible;opacity:0.24;" width="2128" height="1545" xlink:href="88E031D5.png" transform="matrix(0.24 0 0 0.24 33 20)">
	</image>
	<g>
		<g>
			<g id="acronyme_9_">
				<path class="st0" d="M245.6,318c-19.6-23.5-46.6-59.8-81.2-108.9C129.9,160,104.1,124.4,87,102.5c0.1,49,0.9,100.8,2.2,155.4      c0.4,14.5,0.6,23.3,0.6,26.4c0,12.9-1.1,21.4-3.4,25.3c-2.2,4-6.4,6-12.5,6c-4,0-8.1-0.8-12.4-2.5c-4.3-1.7-8.6-4.2-12.8-7.4      c5.8-12,9.8-29.3,12.2-51.8c2.4-22.5,3.5-62.2,3.5-119.1c0-26.7-1.4-45.7-4.1-56.9c-2.7-11.2-7.5-19-14.4-23.5      c4.7-6.8,8.9-11.6,12.5-14.6c3.6-2.9,7.3-4.4,10.9-4.4c3.4,0,6.8,1.3,10.1,4c3.3,2.7,7.4,7.4,12.2,14.2c0.9,1.2,2.8,4,5.9,8.6      c41,59.5,86.9,123.9,137.9,193.1c0.3-19.4,0.6-36.6,0.7-51.5c0.2-14.9,0.2-27.6,0.2-38.2c0-34.7-1.1-61.1-3.4-79.3      c-2.2-18.2-5.9-32.8-11.1-43.7c4.8-3.1,9.2-5.4,13.1-6.9c3.9-1.5,7.6-2.3,11-2.3c6.1,0,10.3,2.2,12.6,6.6      c2.3,4.4,3.4,13.8,3.4,28.3c0,8.6-0.6,29.8-1.8,63.5c-1.2,33.7-1.8,63.2-1.8,88.5c0,16.4,0.3,31.8,1,46.2      c0.6,14.4,1.5,27.8,2.7,40.3L245.6,318z"/>
				<path class="st0" d="M413.4,225.4h-86.8c-8.6,22.7-14.5,40.5-17.9,53.4s-5.1,24-5.1,33.3l-0.2,3.1c-2.5,0.4-4.2,0.6-5.4,0.7      C297,316,296,316,295,316c-7,0-12.2-1.7-15.9-5.2c-3.6-3.5-5.5-8.5-5.5-15.2c0-6.7,10.4-35.4,31.1-86.3      c20.7-50.9,38.9-98.2,54.4-141.9c-1.7-3-3.6-5.9-5.5-8.7c-2-2.8-4.1-5.6-6.3-8.5c4-6,7.6-10.4,10.8-13.1      c3.3-2.7,6.5-4.1,9.9-4.1c4.6,0,9.1,3.6,13.4,10.9c4.3,7.2,9.4,19.5,15.2,36.9c5,15,11.9,35.9,20.7,62.8      c29.7,91.2,50.4,143.6,62.1,157.1c-4.1,5.5-7.8,9.4-11.2,11.7c-3.4,2.3-7,3.5-10.7,3.5c-10.8,0-23-22.4-36.7-67.3      C417.5,238.8,415.1,231,413.4,225.4z M372,99.2l-7.7,21.9c-12.3,35.2-21.3,61-27.1,77.5h67.5c-5.5-17.9-10.9-35.1-16.4-51.6      C382.9,130.5,377.5,114.6,372,99.2z"/>
			</g>
			<g id="titre_9_">
				<path class="st0" d="M81.9,373.1c-3.1-3.5-7.3-8.8-12.8-16.1c-5.4-7.3-9.5-12.5-12.2-15.8c0,7.3,0.1,14.9,0.4,23      c0.1,2.1,0.1,3.4,0.1,3.9c0,1.9-0.2,3.2-0.5,3.8c-0.4,0.6-1,0.9-2,0.9c-0.6,0-1.3-0.1-1.9-0.4c-0.7-0.3-1.3-0.6-2-1.1      c0.9-1.8,1.5-4.3,1.9-7.7c0.4-3.3,0.6-9.2,0.6-17.6c0-4-0.2-6.8-0.6-8.4c-0.4-1.7-1.2-2.8-2.3-3.5c0.7-1,1.4-1.7,2-2.2      c0.6-0.4,1.1-0.7,1.7-0.7c0.5,0,1.1,0.2,1.6,0.6c0.5,0.4,1.2,1.1,1.9,2.1c0.1,0.2,0.4,0.6,0.9,1.3c6.4,8.8,13.7,18.3,21.7,28.6      c0-2.9,0.1-5.4,0.1-7.6c0-2.2,0-4.1,0-5.6c0-5.1-0.2-9.1-0.5-11.7c-0.4-2.7-0.9-4.9-1.7-6.5c0.8-0.5,1.4-0.8,2.1-1      s1.2-0.3,1.7-0.3c1,0,1.6,0.3,2,1c0.4,0.6,0.5,2,0.5,4.2c0,1.3-0.1,4.4-0.3,9.4c-0.2,5-0.3,9.4-0.3,13.1c0,2.4,0,4.7,0.2,6.8      c0.1,2.1,0.2,4.1,0.4,6L81.9,373.1z"/>
				<path class="st0" d="M104.5,373.5c-3.9,0-7.1-1.4-9.5-4.1c-2.5-2.8-3.7-6.3-3.7-10.6c0-4.6,1.3-8.3,3.9-11.2      c2.6-2.9,6-4.3,10.2-4.3c3.8,0,6.9,1.4,9.3,4.1c2.4,2.7,3.7,6.2,3.7,10.3c0,1.7-0.2,3.3-0.7,5c-0.5,1.6-1.1,3-1.9,4.2      c-1.5,2.2-3.2,3.9-5.1,5C108.9,372.9,106.8,373.5,104.5,373.5z M104.8,369.3c2.7,0,5-1,6.7-3.1c1.7-2.1,2.6-4.8,2.6-8.1      c0-3.2-0.9-5.8-2.6-7.8s-3.9-3-6.6-3c-2.8,0-5,1-6.7,3.1c-1.7,2.1-2.6,4.9-2.6,8.3c0,3.1,0.9,5.6,2.6,7.6      C100,368.3,102.2,369.3,104.8,369.3z"/>
				<path class="st0" d="M124,368.1c0.6,0.4,1.2,0.6,1.7,0.8c0.6,0.2,1.1,0.3,1.6,0.3c1.2,0,2.2-0.3,2.9-1c0.7-0.7,1.1-1.5,1.1-2.6      c0-0.8-0.2-1.6-0.6-2.4c-0.4-0.7-1.2-1.6-2.3-2.7c-0.2-0.2-0.4-0.4-0.8-0.7c-2.8-2.7-4.3-5.1-4.3-7.2c0-0.8,0.1-1.7,0.4-2.5      c0.3-0.8,0.7-1.7,1.3-2.4c1.1-1.4,2.3-2.6,3.7-3.3c1.4-0.8,3-1.1,4.6-1.1c0.8,0,1.4,0.2,1.8,0.5c0.4,0.4,0.6,0.9,0.6,1.5      c0,0.3-0.1,0.7-0.2,1.2c-0.2,0.5-0.4,1-0.8,1.7c-0.5-0.2-0.9-0.4-1.3-0.5c-0.4-0.1-0.8-0.2-1.2-0.2c-1.4,0-2.5,0.4-3.4,1.2      c-0.9,0.8-1.3,1.8-1.3,3c0,1.4,1.2,3.2,3.5,5.5c0.6,0.6,1,1,1.3,1.4c1,1,1.7,2,2.2,3c0.5,1,0.7,2,0.7,3c0,2.4-0.9,4.5-2.8,6.2      s-4.1,2.6-6.8,2.6c-0.9,0-1.6-0.2-2.1-0.6s-0.7-1-0.7-1.8c0-0.4,0.1-0.8,0.2-1.2C123.5,369.3,123.7,368.8,124,368.1z"/>
				<path class="st0" d="M176.5,359.4h-13.6c-1.3,3.4-2.3,6-2.8,7.9c-0.5,1.9-0.8,3.6-0.8,4.9l0,0.5c-0.4,0.1-0.7,0.1-0.8,0.1      c-0.2,0-0.3,0-0.5,0c-1.1,0-1.9-0.3-2.5-0.8c-0.6-0.5-0.9-1.3-0.9-2.2s1.6-5.2,4.9-12.8c3.3-7.5,6.1-14.5,8.5-21      c-0.3-0.4-0.6-0.9-0.9-1.3c-0.3-0.4-0.6-0.8-1-1.3c0.6-0.9,1.2-1.5,1.7-1.9c0.5-0.4,1-0.6,1.6-0.6c0.7,0,1.4,0.5,2.1,1.6      c0.7,1.1,1.5,2.9,2.4,5.5c0.8,2.2,1.9,5.3,3.3,9.3c4.7,13.5,7.9,21.2,9.8,23.3c-0.6,0.8-1.2,1.4-1.8,1.7      c-0.5,0.3-1.1,0.5-1.7,0.5c-1.7,0-3.6-3.3-5.8-10C177.2,361.4,176.8,360.3,176.5,359.4z M170,340.7l-1.2,3.2      c-1.9,5.2-3.4,9-4.3,11.5h10.6c-0.9-2.6-1.7-5.2-2.6-7.6C171.8,345.4,170.9,343,170,340.7z"/>
				<path class="st0" d="M190.6,344.1c0.4-0.2,0.8-0.3,1.1-0.3c0.4-0.1,0.7-0.1,1.1-0.1c0.9,0,1.6,0.3,2.1,0.8      c0.5,0.6,0.8,1.3,0.9,2.4c1.3-1,2.6-1.8,3.9-2.3c1.3-0.5,2.5-0.8,3.8-0.8c1.2,0,2.4,0.3,3.5,0.8c1.1,0.6,2.1,1.4,3,2.5      c1.3-1.1,2.7-2,4.2-2.6c1.5-0.6,2.9-0.9,4.3-0.9c3,0,5.3,1,6.9,3c1.6,2,2.4,4.9,2.4,8.6c0,0.5,0,1.6-0.1,3.2s-0.1,2.9-0.1,4      c0,2.5,0.1,4.4,0.3,5.7c0.2,1.3,0.5,2.4,1,3.3c-0.8,0.5-1.5,0.8-2.1,1c-0.6,0.2-1.1,0.3-1.5,0.3c-0.8,0-1.3-0.2-1.6-0.7      c-0.3-0.5-0.4-1.3-0.4-2.7c0-1.2,0.1-3.1,0.2-5.8c0.1-2.6,0.2-4.7,0.2-6.1c0-3.5-0.5-6-1.4-7.5c-0.9-1.5-2.4-2.3-4.4-2.3      c-1.1,0-2.2,0.2-3.2,0.6c-1,0.4-2.1,1-3.3,1.9c0.2,1.2,0.3,2.4,0.4,3.7c0.1,1.3,0.1,3.1,0.1,5.4v3c0,2.7,0.1,4.6,0.3,6      s0.5,2.4,0.9,3.3c-0.7,0.4-1.4,0.8-2,1c-0.6,0.2-1.1,0.3-1.7,0.3c-0.8,0-1.3-0.2-1.6-0.7c-0.3-0.5-0.4-1.4-0.4-2.7      c0-0.7,0-2.3,0.1-4.7c0.1-2.4,0.1-4.5,0.1-6.3c0-4.1-0.4-6.9-1.2-8.3c-0.8-1.5-2.2-2.2-4.1-2.2c-1,0-2.1,0.2-3.1,0.7      c-1.1,0.5-2.2,1.1-3.3,2c0,1.6-0.1,3.7-0.1,6.2c-0.1,2.5-0.1,4.1-0.1,4.6c0,2.6,0.1,4.6,0.3,6.2c0.2,1.6,0.5,2.9,1,3.9      c-0.7,0.4-1.4,0.7-1.9,0.9c-0.6,0.2-1.2,0.3-1.7,0.3c-0.8,0-1.3-0.3-1.6-0.8c-0.3-0.5-0.4-1.6-0.4-3.2c0-0.5,0.1-2.4,0.3-5.7      c0.2-3.4,0.3-6.5,0.3-9.4c0-2.3-0.1-4.2-0.3-5.8C191.3,346.4,191,345.1,190.6,344.1z"/>
				<path class="st0" d="M241.5,371.5c-0.7,0.4-1.4,0.8-2,1c-0.6,0.2-1.3,0.3-1.8,0.3c-0.8,0-1.4-0.3-1.7-0.8      c-0.3-0.5-0.4-1.5-0.4-3.1c0-0.9,0.1-2.9,0.2-6c0.2-3.1,0.2-5.7,0.2-8c0-2.4-0.1-4.4-0.3-5.9c-0.2-1.5-0.5-2.8-1-3.9      c0.6-0.4,1.3-0.7,1.9-1c0.7-0.2,1.3-0.3,1.9-0.3c0.8,0,1.3,0.2,1.6,0.7c0.3,0.4,0.4,1.2,0.4,2.4c0,0.3-0.1,2-0.2,5.1      c-0.2,3.1-0.2,6-0.2,8.7c0,2.6,0.1,4.7,0.3,6.4C240.6,369,241,370.4,241.5,371.5z M241.3,335.1c0,1.1-0.3,2-1,2.8      c-0.7,0.7-1.5,1.1-2.5,1.1c-0.9,0-1.6-0.3-2.1-0.9c-0.5-0.6-0.8-1.4-0.8-2.3c0-1.1,0.3-2,1-2.8c0.7-0.8,1.5-1.1,2.4-1.1      c0.9,0,1.6,0.3,2.2,0.9C241,333.4,241.3,334.2,241.3,335.1z"/>
				<path class="st0" d="M248.2,368.1c0.6,0.4,1.2,0.6,1.7,0.8c0.6,0.2,1.1,0.3,1.6,0.3c1.2,0,2.2-0.3,2.9-1      c0.7-0.7,1.1-1.5,1.1-2.6c0-0.8-0.2-1.6-0.6-2.4c-0.4-0.7-1.2-1.6-2.3-2.7c-0.2-0.2-0.4-0.4-0.8-0.7c-2.8-2.7-4.3-5.1-4.3-7.2      c0-0.8,0.1-1.7,0.4-2.5c0.3-0.8,0.7-1.7,1.3-2.4c1.1-1.4,2.3-2.6,3.7-3.3c1.4-0.8,3-1.1,4.6-1.1c0.8,0,1.4,0.2,1.8,0.5      c0.4,0.4,0.6,0.9,0.6,1.5c0,0.3-0.1,0.7-0.2,1.2c-0.2,0.5-0.4,1-0.8,1.7c-0.5-0.2-0.9-0.4-1.3-0.5c-0.4-0.1-0.8-0.2-1.2-0.2      c-1.4,0-2.5,0.4-3.4,1.2c-0.9,0.8-1.3,1.8-1.3,3c0,1.4,1.2,3.2,3.5,5.5c0.6,0.6,1,1,1.3,1.4c1,1,1.7,2,2.2,3c0.5,1,0.7,2,0.7,3      c0,2.4-0.9,4.5-2.8,6.2c-1.9,1.7-4.1,2.6-6.8,2.6c-0.9,0-1.6-0.2-2.1-0.6s-0.7-1-0.7-1.8c0-0.4,0.1-0.8,0.2-1.2      C247.7,369.3,247.9,368.8,248.2,368.1z"/>
				<path class="st0" d="M287.3,371.5c-0.7,0.4-1.4,0.8-2,1c-0.6,0.2-1.2,0.3-1.7,0.3c-0.8,0-1.4-0.3-1.7-0.8      c-0.3-0.5-0.5-1.5-0.5-3c0-1.8,0.1-5.3,0.3-10.5c0.2-5.1,0.3-9.4,0.3-12.7c0-4.1-0.1-7.3-0.3-9.4c-0.2-2.1-0.6-3.8-1.1-4.9      c0.7-0.4,1.3-0.8,1.9-1c0.6-0.2,1.2-0.3,1.8-0.3c0.8,0,1.4,0.2,1.7,0.7c0.3,0.5,0.5,1.5,0.5,3c0,1.2-0.1,4.5-0.3,9.7      c-0.2,5.3-0.3,9.9-0.3,13.9c0,4.3,0.1,7.4,0.3,9.4C286.5,368.8,286.8,370.4,287.3,371.5z"/>
				<path class="st0" d="M311.9,366.7c0.4,0.5,0.6,1,0.8,1.5c0.2,0.5,0.3,0.9,0.3,1.3c0,1-0.7,1.9-2,2.6c-1.4,0.7-3.1,1-5.3,1      c-4,0-7.2-1.3-9.4-3.8c-2.3-2.5-3.4-6-3.4-10.4c0-4.5,1.1-8.1,3.4-11c2.3-2.8,5.2-4.3,8.8-4.3c2.8,0,5.1,0.9,6.8,2.7      s2.7,4.1,2.7,7c0,2.2-0.7,3.8-2.2,4.8s-4,1.4-7.5,1.4c-1.3,0-2.7-0.1-4-0.2c-1.3-0.1-2.6-0.3-3.9-0.5v0.4c0,3,0.8,5.4,2.3,7.2      c1.5,1.8,3.6,2.6,6.3,2.6c1.2,0,2.4-0.2,3.5-0.6C310,368,311,367.4,311.9,366.7z M297.2,355.3c1.1,0.2,2.3,0.4,3.7,0.5      c1.3,0.1,2.8,0.2,4.3,0.2c2.1,0,3.5-0.2,4.2-0.7c0.7-0.4,1.1-1.2,1.1-2.4c0-1.8-0.5-3.1-1.6-4.2c-1.1-1-2.5-1.5-4.3-1.5      c-2,0-3.6,0.7-4.9,2.1S297.6,352.7,297.2,355.3z"/>
				<path class="st0" d="M319.8,368.1c0.6,0.4,1.2,0.6,1.7,0.8c0.6,0.2,1.1,0.3,1.6,0.3c1.2,0,2.2-0.3,2.9-1      c0.7-0.7,1.1-1.5,1.1-2.6c0-0.8-0.2-1.6-0.6-2.4c-0.4-0.7-1.2-1.6-2.3-2.7c-0.2-0.2-0.4-0.4-0.8-0.7c-2.8-2.7-4.3-5.1-4.3-7.2      c0-0.8,0.1-1.7,0.4-2.5c0.3-0.8,0.7-1.7,1.3-2.4c1.1-1.4,2.3-2.6,3.7-3.3c1.4-0.8,3-1.1,4.6-1.1c0.8,0,1.4,0.2,1.8,0.5      c0.4,0.4,0.6,0.9,0.6,1.5c0,0.3-0.1,0.7-0.2,1.2c-0.2,0.5-0.4,1-0.8,1.7c-0.5-0.2-0.9-0.4-1.3-0.5c-0.4-0.1-0.8-0.2-1.2-0.2      c-1.4,0-2.5,0.4-3.4,1.2c-0.9,0.8-1.3,1.8-1.3,3c0,1.4,1.2,3.2,3.5,5.5c0.6,0.6,1,1,1.3,1.4c1,1,1.7,2,2.2,3c0.5,1,0.7,2,0.7,3      c0,2.4-0.9,4.5-2.8,6.2s-4.1,2.6-6.8,2.6c-0.9,0-1.6-0.2-2.1-0.6c-0.5-0.4-0.7-1-0.7-1.8c0-0.4,0.1-0.8,0.2-1.2      C319.3,369.3,319.5,368.8,319.8,368.1z"/>
				<path class="st0" d="M369.7,373.6c-2.6,0-4.9-0.5-7.2-1.5c-2.2-1-4.2-2.4-5.9-4.2c-1.8-2-3.2-4.3-4.1-6.9      c-0.9-2.6-1.4-5.5-1.4-8.7c0-3.1,0.5-6.1,1.5-8.8c1-2.7,2.4-5.1,4.4-7.2c1.9-2,4-3.6,6.5-4.6c2.5-1,5.2-1.6,8.1-1.6      c5.7,0,10.3,1.9,13.7,5.6c3.4,3.7,5.1,8.6,5.1,14.8c0,3-0.5,5.9-1.4,8.6c-0.9,2.7-2.3,5.1-4.1,7.2c-2,2.4-4.3,4.3-6.9,5.5      C375.5,373,372.7,373.6,369.7,373.6z M385.1,350.9c0-4.9-1.3-8.8-3.8-11.7c-2.6-2.9-6-4.4-10.3-4.4c-4.4,0-8,1.6-10.6,4.7      c-2.7,3.1-4,7.3-4,12.4c0,5,1.3,9.1,3.9,12.2c2.6,3.1,5.9,4.7,10,4.7c4.4,0,7.9-1.7,10.7-5C383.7,360.5,385.1,356.2,385.1,350.9      z"/>
				<path class="st0" d="M402.2,371.5c-0.7,0.4-1.4,0.8-2,1c-0.6,0.2-1.3,0.3-1.8,0.3c-0.8,0-1.4-0.3-1.7-0.8      c-0.3-0.5-0.4-1.5-0.4-3.1c0-0.9,0.1-2.9,0.2-6c0.2-3.1,0.2-5.7,0.2-8c0-2.4-0.1-4.4-0.3-5.9c-0.2-1.5-0.5-2.8-1-3.9      c0.6-0.4,1.3-0.7,1.9-1s1.3-0.3,1.9-0.3c0.8,0,1.3,0.2,1.6,0.7c0.3,0.4,0.4,1.2,0.4,2.4c0,0.3-0.1,2-0.2,5.1      c-0.2,3.1-0.2,6-0.2,8.7c0,2.6,0.1,4.7,0.3,6.4C401.4,369,401.8,370.4,402.2,371.5z M402,335.1c0,1.1-0.3,2-1,2.8      c-0.7,0.7-1.5,1.1-2.5,1.1c-0.9,0-1.6-0.3-2.1-0.9c-0.5-0.6-0.8-1.4-0.8-2.3c0-1.1,0.3-2,1-2.8c0.7-0.8,1.5-1.1,2.4-1.1      c0.9,0,1.6,0.3,2.2,0.9C401.7,333.4,402,334.2,402,335.1z"/>
				<path class="st0" d="M409,368.1c0.6,0.4,1.2,0.6,1.7,0.8c0.6,0.2,1.1,0.3,1.6,0.3c1.2,0,2.2-0.3,2.9-1c0.7-0.7,1.1-1.5,1.1-2.6      c0-0.8-0.2-1.6-0.6-2.4c-0.4-0.7-1.2-1.6-2.3-2.7c-0.2-0.2-0.4-0.4-0.8-0.7c-2.8-2.7-4.3-5.1-4.3-7.2c0-0.8,0.1-1.7,0.4-2.5      c0.3-0.8,0.7-1.7,1.3-2.4c1.1-1.4,2.3-2.6,3.7-3.3c1.4-0.8,3-1.1,4.6-1.1c0.8,0,1.4,0.2,1.8,0.5c0.4,0.4,0.6,0.9,0.6,1.5      c0,0.3-0.1,0.7-0.2,1.2c-0.2,0.5-0.4,1-0.8,1.7c-0.5-0.2-0.9-0.4-1.3-0.5c-0.4-0.1-0.8-0.2-1.2-0.2c-1.4,0-2.5,0.4-3.4,1.2      c-0.9,0.8-1.3,1.8-1.3,3c0,1.4,1.2,3.2,3.5,5.5c0.6,0.6,1,1,1.3,1.4c1,1,1.7,2,2.2,3c0.5,1,0.7,2,0.7,3c0,2.4-0.9,4.5-2.8,6.2      c-1.9,1.7-4.1,2.6-6.8,2.6c-0.9,0-1.6-0.2-2.1-0.6c-0.5-0.4-0.7-1-0.7-1.8c0-0.4,0.1-0.8,0.2-1.2      C408.5,369.3,408.7,368.8,409,368.1z"/>
				<path class="st0" d="M444.1,366.7c0.4,0.5,0.6,1,0.8,1.5c0.2,0.5,0.3,0.9,0.3,1.3c0,1-0.7,1.9-2,2.6c-1.4,0.7-3.1,1-5.3,1      c-4,0-7.2-1.3-9.4-3.8c-2.3-2.5-3.4-6-3.4-10.4c0-4.5,1.1-8.1,3.4-11c2.3-2.8,5.2-4.3,8.8-4.3c2.8,0,5.1,0.9,6.8,2.7      c1.8,1.8,2.7,4.1,2.7,7c0,2.2-0.7,3.8-2.2,4.8c-1.5,0.9-4,1.4-7.5,1.4c-1.3,0-2.7-0.1-4-0.2c-1.3-0.1-2.6-0.3-3.9-0.5v0.4      c0,3,0.8,5.4,2.3,7.2c1.5,1.8,3.7,2.6,6.3,2.6c1.2,0,2.4-0.2,3.5-0.6C442.3,368,443.2,367.4,444.1,366.7z M429.4,355.3      c1.1,0.2,2.3,0.4,3.7,0.5c1.3,0.1,2.8,0.2,4.3,0.2c2.1,0,3.5-0.2,4.2-0.7c0.7-0.4,1.1-1.2,1.1-2.4c0-1.8-0.5-3.1-1.6-4.2      c-1.1-1-2.5-1.5-4.3-1.5c-2,0-3.6,0.7-4.9,2.1C430.6,350.7,429.8,352.7,429.4,355.3z"/>
				<path class="st0" d="M471.9,371.2c-0.7,0.5-1.3,0.8-1.8,1.1c-0.5,0.3-1,0.4-1.4,0.4c-0.7,0-1.2-0.3-1.6-0.8      c-0.3-0.5-0.5-1.3-0.6-2.5c-1.3,1.2-2.5,2.2-3.7,2.8c-1.2,0.6-2.5,0.9-3.8,0.9c-2.5,0-4.6-0.8-6.1-2.4c-1.5-1.6-2.3-3.8-2.3-6.4      c0-3,1.1-5.4,3.2-7.2c2.1-1.8,5-2.7,8.6-2.7c0.6,0,1.2,0,1.9,0.1c0.7,0,1.4,0.1,2.1,0.2c0-0.2,0.1-0.4,0.1-0.5      c0-0.2,0-0.4,0-0.7c0-2-0.5-3.5-1.5-4.6c-1-1.1-2.4-1.6-4.3-1.6c-1.5,0-2.8,0.3-3.8,0.9c-1,0.6-1.8,1.5-2.4,2.7      c-0.6-0.2-1.1-0.5-1.4-0.9c-0.3-0.4-0.5-1-0.5-1.7c0-1.4,0.8-2.6,2.3-3.5c1.6-0.9,3.6-1.4,6.1-1.4c3.1,0,5.4,0.9,6.9,2.6      c1.5,1.7,2.3,4.3,2.3,7.7c0,0.6,0,1.7-0.1,3.3c0,1.6-0.1,2.9-0.1,3.8c0,2.7,0.1,4.8,0.4,6.4C470.8,369,471.2,370.3,471.9,371.2z       M466.3,358.3c-0.8-0.1-1.5-0.2-2.1-0.3c-0.6-0.1-1.1-0.1-1.6-0.1c-2.6,0-4.6,0.5-5.9,1.5c-1.3,1-2,2.5-2,4.4      c0,1.6,0.5,2.8,1.4,3.7c0.9,0.9,2.2,1.4,3.8,1.4c1.2,0,2.4-0.3,3.4-0.8c1.1-0.5,2-1.3,2.9-2.4c0-1-0.1-1.8-0.1-2.4      c0-0.6,0-1.2,0-1.8c0-0.3,0-0.9,0-1.6C466.3,359.3,466.3,358.7,466.3,358.3z"/>
				<path class="st0" d="M494.2,368.6c-1.1,1.6-2.4,2.8-3.7,3.5c-1.3,0.8-2.8,1.1-4.4,1.1c-2.8,0-4.9-1-6.4-2.9s-2.2-4.7-2.2-8.3      c0-0.8,0-2.2,0.1-4.3c0.1-2.1,0.1-3.8,0.1-5.1c0-1.8-0.1-3.2-0.3-4.4c-0.2-1.2-0.5-2.2-0.9-3.1c0.8-0.4,1.4-0.7,2-0.9      c0.6-0.2,1-0.3,1.4-0.3c0.8,0,1.3,0.2,1.6,0.7c0.3,0.5,0.4,1.3,0.4,2.5c0,1-0.1,2.8-0.2,5.5c-0.1,2.7-0.2,5-0.2,6.7      c0,3.7,0.4,6.2,1.2,7.7c0.8,1.4,2.1,2.1,4,2.1c1.4,0,2.7-0.4,3.9-1.2c1.2-0.8,2.3-2,3.5-3.7c0.1-1.2,0.1-2.5,0.2-3.9      c0-1.4,0-2.9,0-4.5c0-2.6-0.1-4.8-0.3-6.6c-0.2-1.8-0.6-3.2-1.1-4.2c0.8-0.4,1.4-0.8,2-1c0.6-0.2,1.1-0.3,1.6-0.3      c0.7,0,1.3,0.3,1.5,0.8c0.3,0.5,0.4,1.7,0.4,3.5c0,0.8,0,2.7-0.1,5.6c-0.1,2.9-0.1,5.4-0.1,7.4c0,2.9,0.1,5.1,0.3,6.6      c0.2,1.6,0.6,2.8,1,3.6c-0.8,0.5-1.5,0.8-2.1,1c-0.6,0.2-1,0.3-1.4,0.3c-0.7,0-1.2-0.3-1.5-0.9      C494.4,371.3,494.2,370.2,494.2,368.6z"/>
				<path class="st0" d="M513.3,358.3c-2.6-4-4.6-6.8-6-8.5c-1.4-1.7-2.4-2.6-3.1-2.7c0.3-1.1,0.7-2,1.2-2.6      c0.5-0.6,1.1-0.9,1.7-0.9c0.9,0,2.4,1.8,4.5,5.3c1.6,2.7,3,4.9,4.2,6.6c2.3-2.9,4-5.2,4.9-6.7c0.9-1.6,1.4-2.8,1.4-3.8      c0-0.1,0-0.3,0-0.4s0-0.3-0.1-0.4c0.6-0.3,1.1-0.4,1.5-0.5c0.3-0.1,0.6-0.1,0.9-0.1c0.7,0,1.3,0.2,1.6,0.6      c0.4,0.4,0.6,0.9,0.6,1.6c0,1.5-2.9,5.5-8.6,12.1l-0.4,0.5c0.5,0.7,1.2,1.7,2,3c3.7,5.6,5.9,8.3,6.7,8.3h0      c-0.3,1.1-0.6,2-1.1,2.5c-0.5,0.6-1.1,0.9-1.7,0.9c-1,0-2.6-1.9-4.8-5.6c-1.4-2.5-2.7-4.5-3.7-6c-2.4,2.9-4,5.1-4.9,6.6      c-0.9,1.5-1.4,2.7-1.4,3.6c0,0.2,0,0.4,0.1,0.8c0,0.1,0,0.1,0,0.2c-0.5,0.2-1,0.4-1.4,0.4c-0.4,0.1-0.8,0.1-1.1,0.1      c-0.8,0-1.4-0.2-1.7-0.5c-0.4-0.3-0.5-0.9-0.5-1.6c0-1.7,2.6-5.4,7.8-11.2L513.3,358.3z"/>
			</g>
		</g>
	</g>
</g>
<g id="logo_réduit_V2_1_">
	
		<image style="overflow:visible;opacity:0.24;" width="1449" height="1596" xlink:href="88E031D7.png" transform="matrix(0.24 0 0 0.24 439.32 3.68)">
	</image>
	<g>
		<g>
			<path id="oeil_13_" class="st1" d="M672.7,80c-2.4,2.7-4.2,6.6-7.3,7.7c-2.2,0.8-6.1-2.3-11.7-4.7c4.7-3.7,7.3-7.4,10-7.6     C666.7,75.2,669.7,78.3,672.7,80z"/>
			<path id="pin_gauche_13_" class="st0" d="M557,301.1c-2.3-1-4.5-2-6.6-3.1c0,0-1.1-0.6-2.3-1.2c-6.7-3.5-13-7.5-19-12     c-34.4-25.9-56.3-67.6-54.6-114.4c0.2-4.8,0.6-9.6,1.3-14.3c-1-5.4-1.8-10.9-2.3-16.5c-0.6-7.8-0.7-15.7-0.3-23.6l1.2-20.9     c-13.8,23.5-21.8,51-21.8,80.3c0,44.5,18.3,84.7,47.9,113.5c0,0.1,0,0.1,0.1,0.1c5.7,5.8,11.8,11.8,18.6,17.8     c6,5.3,11.8,10.3,17.4,14.8l7.6-5.6c5.6-4.1,10.5-8.9,14.8-14.1C558.2,301.6,557.6,301.4,557,301.1z M475.3,93.4l9.3,20.5     c0.7,1.6,1.5,3,2.3,4.5c1.7-3.8,3.7-7.4,5.7-11c7.1-12.3,16.1-23.4,26.5-33c0.5-2.4,1-4.8,1.5-7.2c0.9-4.1,2-8.2,3.2-12.5     l4.2-14.5C506.5,53.5,488.4,71.8,475.3,93.4z M611.1,16.8c-29.5,0-57.2,8.1-80.8,22.1l5,15.7c0.6,2,1.3,3.9,2,5.8     c1.7-1.1,3.5-2.2,5.3-3.2c2.1-1.2,4.3-2.4,6.4-3.5c17.2-8.8,36.4-14.1,56.7-14.9c8.9-0.3,25.3-0.1,44.7,5.6     c5.2,1.5,9.8,3.2,13.6,4.8c5.8,0.2,11.7,0.7,17.4,1.8c0.9,0.2,4,0.7,8.3,1.3c1.6,0.2,3.4,0.4,5.1,0.6l0.2,0     c2.5,0.3,4.7,0.5,7.7,0.7c1.8,0.1,3.5,0.1,5.1,0.1c1.7,0,3.3,0,4.8-0.1C685,30.6,649.7,16.8,611.1,16.8z"/>
			<path id="pin_droite_13_" class="st0" d="M769.7,175.4c0,44.6-18.4,85-48.2,113.8c-0.1,0.2-0.3,0.3-0.4,0.4     c-23.1,23.5-50,44-78.7,62.8c-8.8,5.7-17.8,11.1-27,16.2c-2,1.1-6.1,1.4-8,0.4c-21.7-12.6-42.6-25.9-61.9-40.5l4.7-2.2     c8.4-3.9,16.4-8.7,23.8-14.2c1.4-1,3-2.2,4.9-3.7c2.1,0.5,4.3,1,6.8,1.5c1.1,0.2,2.2,0.4,3.3,0.6c6.5,1.1,13.9,1.8,22.1,1.8     c10.7,0,24.4-1.2,39.6-5.8c15.5-4.7,29.9-12.1,42.5-21.6c33.2-25,54.7-64.7,54.7-109.4c0-14.1-2.1-27.7-6.1-40.5     c-2.3-7.5-9-26.9-25.2-46.6c-3.3-4-6.3-7.3-8.8-9.7c3.1-2.5,6.3-4.9,9.4-7.1c2.2-1.6,4.5-3.1,7-4.5c0.6-0.3,1.1-0.6,1.7-1     c2.4,2.5,5.1,5.5,8,9.1c0,0,1.2,1.5,2.4,3C757.3,105,769.7,138.7,769.7,175.4z"/>
			<g>
				<path class="st1" d="M718.5,59.2c-3.2,0.2-6.7,0.4-10.7,0.4c-1.7,0-3.5,0-5.4-0.1c-3.3-0.2-5.6-0.4-8.3-0.7      c-2-0.2-3.7-0.4-5.3-0.7c-4.6-0.6-8-1.2-8.5-1.3c-7.1-1.3-13.7-1.7-19.4-1.7c-13.7,0-22.6,2.5-22.6,2.5      c-3.4,1-18.6,5.6-32.2,19.3c-9.2,9.3-13.4,18.5-14.5,21c-4.2,9.6-5.4,18.2-5.7,23.7c-1.2-0.4-3-1-5.1-1.8      c-2.9-1.1-6.1-2.2-9.5-4.3c-2.9-1.8-5.3-3.7-5.7-4c-4.8-3.6-8-7-10.1-9.2c-11.9-12.5-19-27.4-23.2-38.2c-1.1-2.9-2-5.5-2.7-7.7      c-1.1,3.7-2.2,7.7-3.2,12.1c-2.6,11.4-4.7,24.9-5.2,40.2c-0.5,17,1.1,31.9,3.3,43.7c-5.5-1.1-14.8-3.7-24.2-10.3      c-7.5-5.3-12.7-11.5-16.2-16.8c-2.4-3.6-4-6.8-5-9c-0.3,5.7-0.5,13.6,0.3,22.8c1,12.4,3.7,27.1,9.9,42      c5.5,13.2,12.4,23.2,13.9,25.3c3.5,5,9.5,13.6,19.7,22.5c2.4,2.1,10.1,8.6,21.7,14.8c7.8,4.1,19.7,9.4,35.3,12.3      c0.5,4.4,0.7,10.9-0.8,18.4c-2.1,11.1-6.8,18.6-10,23.6c-6.7,10.7-14.8,18-21.4,22.9c9.8-4.6,17.4-9.6,22.8-13.6      c6.8-5.1,19.4-14.5,29.8-31.1c4.5-7.1,7.4-13.6,9.2-18.3c9.6-3.2,19.1-6.3,28.7-9.5c-9.2-0.4-21.4-1.7-35.3-5.3      c-21.1-5.5-36.5-14-44.5-19c-15.6-9.6-25.9-19.5-30-23.8c-11.5-11.6-19.2-23.2-24.3-32c4.7,3.6,23.9,17.6,49.9,17.6      c3.5,0,7.1-0.3,10.9-0.8c5.8-0.9,19.4-3,32.8-13.5c18.4-14.5,23-34.6,24.2-40.7c-1.3,2.2-3.3,4.8-6,7.5      c-3.9,3.8-7.8,6.1-10.7,7.4c-0.7-4.7-5-36.5,15.8-58C632.5,75.5,648,71,653.4,69.4c3.2-0.9,12.3-3.4,24.6-3.4c1,0,2.1,0,3.2,0      c6.8,0.2,12.6,1.2,16.8,2.2c-8.2,5.7-21.4,17-27,35c-4.5,14.5-2.7,28.9-2,34c0.2,1.3,0.1,0.5,5,27.7c1.4,7.6,2.1,11.5,2.3,16.3      c0.4,7.9-0.2,13.9-1,20.7c-0.5,3.9-1.4,12.2-3.7,21.3c-2,8.1-5.8,23.6-16.7,39.7c-10.7,15.8-23.7,25.8-33.3,31.6      c10.6-3.1,31.2-10.6,50.2-29.1c0,0,19.1-18.6,28.8-44.2c6-15.8,7.1-28.9,7.5-33.3c1.6-19.1-1.9-37.5-11.2-54.5      c-8.2-15.1-11.1-27.3-8.4-38.1c2.2-8.6,8-15.3,14.4-20.8c3.5-3,7.1-5.6,10.6-8.1c2.7-1.9,5.2-3.5,7.5-4.8      c2.5-1.5,4.8-2.6,6.6-3.5C725.3,58.6,722.1,59,718.5,59.2z M570,158.6c-4,0.8-7.5,0.9-10,0.9c-1.3,0-2.3,0-2.9-0.1      c-4.3-0.3-7.9-1-10.6-1.8c-2.4-6.4-4.8-14.6-6.3-24.3c-1.7-11.6-1.5-21.7-0.8-29.5c2.9,5.1,10.3,16.1,24.3,23.3      c8.6,4.4,16.5,5.8,21.8,6.3c0.5,2.7,0.9,5.6,1.2,8.7c0.4,3.6,0.5,7,0.6,10.2C583,154.7,577.2,157.3,570,158.6z"/>
			</g>
		</g>
	</g>
</g>
</svg>